<svg xmlns="http://www.w3.org/2000/svg" viewBox="0 0 32 32" fill="none">
  <circle cx="16" cy="16" r="14.5" fill="#142B21" stroke="#34D399" stroke-width="0.8" opacity="0.95"/>
  <circle cx="16" cy="16" r="13" fill="#1A3D2C"/>
  <circle cx="16" cy="16" r="10" fill="#1E4D35" opacity="0.5"/>
  <circle cx="12.5" cy="16" r="3.2" fill="#059669" opacity="0.9"/>
  <circle cx="12.5" cy="16" r="2" fill="#34D399" opacity="0.7"/>
  <circle cx="12.5" cy="16" r="0.8" fill="#6EE7B7" opacity="0.5"/>
  <path d="M14 14.5C16 12 19 10.5 22 10C24 9.8 26 10.5 28 11" stroke="#34D399" stroke-width="1.1" stroke-linecap="round" opacity="0.7" fill="none"/>
  <path d="M14 17.5C16 20 19 21.5 22 22C24 22.2 26 21.5 28 21" stroke="#34D399" stroke-width="1.1" stroke-linecap="round" opacity="0.7" fill="none"/>
  <path d="M11 14C9 12.5 7 11.5 5 11" stroke="#059669" stroke-width="0.7" stroke-linecap="round" opacity="0.5" fill="none"/>
  <path d="M11 18C9 19.5 7 20.5 5 21" stroke="#059669" stroke-width="0.7" stroke-linecap="round" opacity="0.5" fill="none"/>
  <path d="M17 12C18.5 10.5 20 9.5 22 9" stroke="#34D399" stroke-width="0.5" stroke-linecap="round" opacity="0.4" fill="none"/>
  <path d="M19 11C20 10 21.5 9.8 23 10.2" stroke="#34D399" stroke-width="0.4" stroke-linecap="round" opacity="0.35" fill="none"/>
  <path d="M17 20C18.5 21.5 20 22.5 22 23" stroke="#34D399" stroke-width="0.5" stroke-linecap="round" opacity="0.4" fill="none"/>
  <path d="M19 21C20 22 21.5 22.2 23 21.8" stroke="#34D399" stroke-width="0.4" stroke-linecap="round" opacity="0.35" fill="none"/>
  <circle cx="20" cy="16" r="3.5" fill="#142B21" opacity="0.4"/>
  <circle cx="20" cy="16" r="1.8" fill="#142B21" opacity="0.3"/>
  <ellipse cx="16" cy="16" rx="12" ry="4.5" stroke="#34D399" stroke-width="0.6" stroke-dasharray="2 3" opacity="0.35" fill="none" transform="rotate(-20 16 16)"/>
  <circle cx="27" cy="12.5" r="1" fill="#34D399" opacity="0.8"/>
  <line x1="26" y1="12.5" x2="28" y2="12.5" stroke="#6EE7B7" stroke-width="0.4" opacity="0.6"/>
</svg>
